<svg viewBox="0 0 64 64" xmlns="http://www.w3.org/2000/svg">
<rect x=".46363" y=".46363" width="63.073" height="63.073" rx=".91429" ry=".91429" fill="none" stroke="#037" stroke-linecap="round" stroke-linejoin="round" stroke-width=".92709"/>
<path d="m38.385 31.876c-0.79177 0-1.5634-0.15909-2.2912-0.4736l0.85394-1.9785c0.45714 0.19566 0.93988 0.29623 1.4373 0.29623 0.40594 0 0.8064-0.06766 1.1904-0.20114l0.70949 2.0334c-0.61074 0.21577-1.2489 0.32366-1.8999 0.32366zm-19.972-0.040229c-0.68206 0-1.355-0.12069-1.9986-0.35657l0.74423-2.0206c0.40411 0.14811 0.82468 0.22309 1.2544 0.22309 0.47543 0 0.93988-0.09143 1.3787-0.27063l0.81737 1.9931c-0.69851 0.28709-1.4373 0.43154-2.1961 0.43154zm15.854-1.4318-3.0336-1.728 1.0661-1.8725 3.0354 1.728zm-11.803-0.03657-1.1063-1.8487 2.997-1.7938 1.1063 1.8487zm7.1643-2.5746c-0.44434-0.18469-0.91428-0.27977-1.397-0.27977-0.42057 0-0.83566 0.07314-1.2325 0.2176l-0.73326-2.0261c0.63269-0.22857 1.2946-0.34377 1.9657-0.34377 0.768 0 1.5177 0.14994 2.2254 0.44617zm13.398-0.29806c-0.97646 0-1.7701 0.79177-1.7701 1.7701s0.7936 1.7701 1.7701 1.7701c0.97829 0 1.7719-0.7936 1.7719-1.7701 0-0.97829-0.7936-1.7701-1.7719-1.7701zm-29.369 0c-0.97828 0-1.7719 0.79177-1.7719 1.7701s0.7936 1.7701 1.7719 1.7701c0.97829 0 1.7719-0.7936 1.7719-1.7701 0-0.97829-0.7936-1.7701-1.7719-1.7701zm32.971-1.5214v12.22l-7.3143 4.533v-7.9835h-1.8286v7.5721l-7.3143-5.2754v-5.9538h-3.6571v5.952l-7.3143 5.2754v-7.5703h-1.8286v7.9817l-7.3143-4.533v-24.309l7.3143 4.533v7.1845h1.8286v-7.1808l7.3143-5.2773v8.8009h3.6571v-8.8009l2.8837 2.0809c-0.61989-1.2818-1.0551-2.7758-1.0551-4.6153l0.03474-0.63086-3.6919-2.6624-10.139 7.3143-11.803-7.3143v32.914l11.803 7.3143 10.139-7.3143 10.139 7.3143 11.803-7.3143v-21.244l-0.07131 0.08594c-1.5195 1.7957-2.9513 3.5072-3.5858 6.9029zm3.6571-15.365c0-3.8382-3.4743-6.9504-7.3143-6.9504s-7.3143 3.1122-7.3143 6.9504c0 5.707 5.8295 6.3104 7.3143 14.992 1.4848-8.6821 7.3143-9.2855 7.3143-14.992zm-10.057 0.36389c0-1.5159 1.2288-2.7429 2.7429-2.7429s2.7429 1.227 2.7429 2.7429-1.2288 2.7429-2.7429 2.7429-2.7429-1.227-2.7429-2.7429zm-1.0021 14.629c-0.38766-1.8139-1.0002-3.1525-1.7408-4.2679v4.2679z" fill="#037" stroke-width="1.8286"/>
<path d="m59.828 52.691v1.7048l-6.4 3.1576v-1.784l4.512-2.2265-4.512-2.232v-1.7784zm-12.8 3.0784-4.512-2.2265 4.512-2.232v-1.7784l-6.4 3.1583v1.7048l6.4 3.1576zm5.6377-8.6265h-1.6624l-3.2088 12.8h1.6584z" fill="#037" stroke="#037" stroke-width=".8"/>
</svg>

