<svg viewBox="0 0 64 64" xmlns="http://www.w3.org/2000/svg">
<rect x=".46363" y=".46363" width="63.073" height="63.073" rx=".91429" ry=".91429" fill="none" stroke="#037" stroke-linecap="round" stroke-linejoin="round" stroke-width=".92709"/>
<path d="m50.286 14.272c-1.6146 0.7168-3.3499 1.1995-5.1712 1.4171 1.8597-1.1136 3.2878-2.8782 3.9589-4.981-1.739 1.0313-3.6663 1.781-5.7179 2.1851-1.6402-1.7499-3.9826-2.8434-6.5719-2.8434-5.813 0-10.085 5.4235-8.7717 11.054-7.4807-0.37486-14.115-3.9589-18.556-9.4062-2.3589 4.0466-1.2233 9.3403 2.7849 12.021-1.4738-0.04754-2.8635-0.45166-4.0759-1.1264-0.098743 4.171 2.891 8.0731 7.221 8.9417-1.2672 0.34377-2.6551 0.42423-4.0667 0.1536 1.1447 3.5767 4.469 6.1787 8.4114 6.2519-3.7851 2.9678-8.5541 4.2935-13.33 3.7303 3.9845 2.5545 8.7186 4.0448 13.802 4.0448 16.717 0 26.161-14.118 25.591-26.781 1.7591-1.2709 3.2859-2.8562 4.4928-4.661z" fill="#037" stroke-width="1.8286"/>
<path d="m59.828 52.691v1.7048l-6.4 3.1576v-1.784l4.512-2.2265-4.512-2.232v-1.7784zm-12.8 3.0784-4.512-2.2265 4.512-2.232v-1.7784l-6.4 3.1583v1.7048l6.4 3.1576zm5.6377-8.6265h-1.6624l-3.2088 12.8h1.6584z" fill="#037" stroke="#037" stroke-width=".8"/>
</svg>

